<?xml version="1.0" encoding="UTF-8"?>
<svg width="217px" height="1677px" viewBox="0 0 217 1677" version="1.1" xmlns="http://www.w3.org/2000/svg" xmlns:xlink="http://www.w3.org/1999/xlink" style="background: #000000;">
    <!-- Generator: Sketch 48.2 (47327) - http://www.bohemiancoding.com/sketch -->
    <title>missing gpi data</title>
    <desc>Created with Sketch.</desc>
    <defs></defs>
    <g id="Page-1" stroke="none" stroke-width="1" fill="none" fill-rule="evenodd" stroke-linecap="square">
        <g id="missing-gpi-data" stroke="#979797" stroke-width="6">
            <path d="M-17.5,33.5 L271,-85" id="Line-7"></path>
            <path d="M-17.5,64.5 L271,-54" id="Line-7"></path>
            <path d="M-17.5,95.5 L271,-23" id="Line-7"></path>
            <path d="M-17.5,126.5 L271,8" id="Line-7"></path>
            <path d="M-17.5,158.5 L271,40" id="Line-7"></path>
            <path d="M-17.5,189.5 L271,71" id="Line-7"></path>
            <path d="M-17.5,220.5 L271,102" id="Line-7"></path>
            <path d="M-17.5,251.5 L271,133" id="Line-7"></path>
            <path d="M-17.5,282.5 L271,164" id="Line-7"></path>
            <path d="M-17.5,313.5 L271,195" id="Line-7"></path>
            <path d="M-17.5,344.5 L271,226" id="Line-7"></path>
            <path d="M-17.5,376.5 L271,258" id="Line-7"></path>
            <path d="M-17.5,407.5 L271,289" id="Line-7"></path>
            <path d="M-17.5,438.5 L271,320" id="Line-7"></path>
            <path d="M-17.5,469.5 L271,351" id="Line-7"></path>
            <path d="M-17.5,500.5 L271,382" id="Line-7"></path>
            <path d="M-17.5,531.5 L271,413" id="Line-7"></path>
            <path d="M-17.5,562.5 L271,444" id="Line-7"></path>
            <path d="M-17.5,594.5 L271,476" id="Line-7"></path>
            <path d="M-17.5,625.5 L271,507" id="Line-7"></path>
            <path d="M-17.5,656.5 L271,538" id="Line-7"></path>
            <path d="M-17.5,687.5 L271,569" id="Line-7"></path>
            <path d="M-17.5,718.5 L271,600" id="Line-7"></path>
            <path d="M-17.5,749.5 L271,631" id="Line-7"></path>
            <path d="M-17.5,780.5 L271,662" id="Line-7"></path>
            <path d="M-17.5,812.5 L271,694" id="Line-7"></path>
            <path d="M-17.5,843.5 L271,725" id="Line-7"></path>
            <path d="M-17.5,874.5 L271,756" id="Line-7"></path>
            <path d="M-17.5,905.5 L271,787" id="Line-7"></path>
            <path d="M-17.5,936.5 L271,818" id="Line-7"></path>
            <path d="M-17.5,967.5 L271,849" id="Line-7"></path>
            <path d="M-17.5,999.5 L271,881" id="Line-7"></path>
            <path d="M-17.5,1030.5 L271,912" id="Line-7"></path>
            <path d="M-17.5,1061.5 L271,943" id="Line-7"></path>
            <path d="M-17.5,1092.5 L271,974" id="Line-7"></path>
            <path d="M-17.5,1123.5 L271,1005" id="Line-7"></path>
            <path d="M-17.5,1154.5 L271,1036" id="Line-7"></path>
            <path d="M-17.5,1185.5 L271,1067" id="Line-7"></path>
            <path d="M-17.5,1217.5 L271,1099" id="Line-7"></path>
            <path d="M-17.5,1248.5 L271,1130" id="Line-7"></path>
            <path d="M-17.5,1279.5 L271,1161" id="Line-7"></path>
            <path d="M-17.5,1310.5 L271,1192" id="Line-7"></path>
            <path d="M-17.5,1341.5 L271,1223" id="Line-7"></path>
            <path d="M-17.5,1372.5 L271,1254" id="Line-7"></path>
            <path d="M-17.5,1403.5 L271,1285" id="Line-7"></path>
            <path d="M-17.5,1435.5 L271,1317" id="Line-7"></path>
            <path d="M-17.5,1466.5 L271,1348" id="Line-7"></path>
            <path d="M-17.5,1497.5 L271,1379" id="Line-7"></path>
            <path d="M-17.5,1528.5 L271,1410" id="Line-7"></path>
            <path d="M-17.5,1559.5 L271,1441" id="Line-7"></path>
            <path d="M-17.5,1590.5 L271,1472" id="Line-7"></path>
            <path d="M-17.5,1621.5 L271,1503" id="Line-7"></path>
            <path d="M-17.5,1653.5 L271,1535" id="Line-7"></path>
            <path d="M-17.5,1684.5 L271,1566" id="Line-7"></path>
            <path d="M-17.5,1715.5 L271,1597" id="Line-7"></path>
            <path d="M-17.5,1746.5 L271,1628" id="Line-7"></path>
        </g>
    </g>
</svg>